<?xml version="1.0" encoding="UTF-8"?>
<svg width="7px" height="12px" viewBox="0 0 7 12" version="1.1" xmlns="http://www.w3.org/2000/svg" xmlns:xlink="http://www.w3.org/1999/xlink">
    <!-- Generator: Sketch 51.3 (57544) - http://www.bohemiancoding.com/sketch -->
    <title>angle2</title>
    <desc>Created with Sketch.</desc>
    <defs></defs>
    <g id="Page-1" stroke="none" stroke-width="1" fill="none" fill-rule="evenodd" opacity="0.5">
        <g id="Home-page" transform="translate(-366.000000, -799.000000)" fill="#000000">
            <g id="Group-13" transform="translate(250.000000, 651.000000)">
                <g id="Group-2" transform="translate(0.000000, 140.000000)">
                    <g id="angle2" transform="translate(116.000000, 8.000000)">
                        <path d="M6.83885417,5.72560976 L1.302,0.169609756 C1.2228125,0.0901463415 1.13166667,0.0503414634 1.02870833,0.0503414634 C0.92575,0.0503414634 0.834604167,0.0901463415 0.755416667,0.169609756 L0.1614375,0.765804878 C0.0821041667,0.845268293 0.0425833333,0.936585366 0.0425833333,1.04004878 C0.0425833333,1.1435122 0.0821041667,1.23482927 0.1614375,1.31429268 L4.830875,6 L0.1614375,10.6858537 C0.0821041667,10.7653171 0.0425833333,10.8567805 0.0425833333,10.9599512 C0.0425833333,11.0634146 0.0821041667,11.154878 0.1614375,11.2343415 L0.755416667,11.8302439 C0.834604167,11.9098537 0.92575,11.9493659 1.02870833,11.9493659 C1.13166667,11.9493659 1.2228125,11.9097073 1.302,11.8302439 L6.83870833,6.2742439 C6.91789583,6.19478049 6.95741667,6.10331707 6.95741667,6 C6.95741667,5.89668293 6.91804167,5.80521951 6.83885417,5.72560976 L6.83885417,5.72560976 Z" id="Shape" fill="#FFFFFF"></path>
                    </g>
                </g>
            </g>
        </g>
    </g>
</svg>